<svg width="24" height="25" viewBox="0 0 24 25" fill="none" xmlns="http://www.w3.org/2000/svg">
<path d="M4.50763 17.6818H19.4933C19.9097 17.6818 20.1458 17.0379 19.9006 16.669C19.3329 15.8147 18.7814 14.5555 18.7814 13.037L18.8058 10.9599C18.8058 6.83993 15.7588 3.5 12 3.5C8.29581 3.5 5.29296 6.79145 5.29296 10.8517L5.26855 13.037C5.26855 14.5451 4.69736 15.7975 4.10557 16.6514C3.85054 17.0194 4.08602 17.6818 4.50763 17.6818Z" fill="black"/>
<path d="M9.33333 20.5909C10.041 21.1562 10.9755 21.5 12 21.5C13.0245 21.5 13.959 21.1562 14.6667 20.5909M4.50763 17.6818C4.08602 17.6818 3.85054 17.0194 4.10557 16.6514C4.69736 15.7975 5.26855 14.5451 5.26855 13.037L5.29296 10.8517C5.29296 6.79145 8.29581 3.5 12 3.5C15.7588 3.5 18.8058 6.83993 18.8058 10.9599L18.7814 13.037C18.7814 14.5555 19.3329 15.8147 19.9006 16.669C20.1458 17.0379 19.9097 17.6818 19.4933 17.6818H4.50763Z" stroke="black" stroke-width="2" stroke-linecap="round" stroke-linejoin="round"/>
</svg>
