<svg width="36" height="36" viewBox="0 0 36 36" fill="none" xmlns="http://www.w3.org/2000/svg">
<rect x="0.5" y="0.5" width="35" height="35" rx="17.5" stroke="#999999"/>
<path fill-rule="evenodd" clip-rule="evenodd" d="M17.1919 11.3081C17.436 11.5521 17.436 11.9479 17.1919 12.1919L12.0089 17.375H25.5C25.8452 17.375 26.125 17.6548 26.125 18C26.125 18.3452 25.8452 18.625 25.5 18.625H12.0089L17.1919 23.8081C17.436 24.0521 17.436 24.4479 17.1919 24.6919C16.9479 24.936 16.5521 24.936 16.3081 24.6919L10.0581 18.4419C9.81398 18.1979 9.81398 17.8021 10.0581 17.5581L16.3081 11.3081C16.5521 11.064 16.9479 11.064 17.1919 11.3081Z" fill="#999999"/>
</svg>
