<svg width="22" height="22" viewBox="0 0 22 22" fill="none" xmlns="http://www.w3.org/2000/svg">
<path fill-rule="evenodd" clip-rule="evenodd" d="M6 6.55651e-07L21 0C21.2652 0 21.5196 0.105357 21.7071 0.292893C21.8946 0.48043 22 0.734784 22 1V16C22 16.5523 21.5523 17 21 17C20.4477 17 20 16.5523 20 16V3.41421L1.70711 21.7071C1.31658 22.0976 0.683417 22.0976 0.292893 21.7071C-0.0976311 21.3166 -0.0976311 20.6834 0.292893 20.2929L18.5858 2L6 2C5.44771 2 5 1.55229 5 1C5 0.447716 5.44771 6.55651e-07 6 6.55651e-07Z" fill="black"/>
</svg>
