<svg width="36" height="36" viewBox="0 0 36 36" fill="none" xmlns="http://www.w3.org/2000/svg">
<rect x="0.5" y="0.5" width="35" height="35" rx="17.5" stroke="#070C29"/>
<path fill-rule="evenodd" clip-rule="evenodd" d="M18.8081 11.3081C19.0521 11.064 19.4479 11.064 19.6919 11.3081L25.9419 17.5581C26.0592 17.6753 26.125 17.8342 26.125 18C26.125 18.1658 26.0592 18.3247 25.9419 18.4419L19.6919 24.6919C19.4479 24.936 19.0521 24.936 18.8081 24.6919C18.564 24.4479 18.564 24.0521 18.8081 23.8081L23.9911 18.625H10.5C10.1548 18.625 9.875 18.3452 9.875 18C9.875 17.6548 10.1548 17.375 10.5 17.375H23.9911L18.8081 12.1919C18.564 11.9479 18.564 11.5521 18.8081 11.3081Z" fill="#070C29"/>
</svg>
