<svg width="20" height="20" viewBox="0 0 20 20" fill="none" xmlns="http://www.w3.org/2000/svg">
<path d="M9.93743 5.86964C9.10373 5.86964 8.28876 6.11686 7.59556 6.58004C6.90237 7.04322 6.36209 7.70155 6.04305 8.47179C5.72401 9.24202 5.64053 10.0896 5.80318 10.9072C5.96582 11.7249 6.36729 12.476 6.9568 13.0655C7.54631 13.655 8.2974 14.0565 9.11508 14.2191C9.93275 14.3818 10.7803 14.2983 11.5505 13.9793C12.3208 13.6602 12.9791 13.12 13.4423 12.4268C13.9055 11.7336 14.1527 10.9186 14.1527 10.0849C14.1515 8.96729 13.707 7.89581 12.9168 7.10555C12.1265 6.31529 11.055 5.87081 9.93743 5.86964ZM9.93743 12.1925C9.52058 12.1925 9.11309 12.0689 8.7665 11.8373C8.4199 11.6057 8.14976 11.2766 7.99024 10.8914C7.83072 10.5063 7.78898 10.0826 7.8703 9.67371C7.95163 9.26488 8.15236 8.88933 8.44711 8.59458C8.74187 8.29982 9.11741 8.09909 9.52625 8.01777C9.93509 7.93644 10.3589 7.97818 10.744 8.1377C11.1291 8.29722 11.4583 8.56736 11.6899 8.91396C11.9214 9.26056 12.0451 9.66804 12.0451 10.0849C12.0451 10.6439 11.823 11.1799 11.4277 11.5752C11.0325 11.9705 10.4964 12.1925 9.93743 12.1925ZM14.1527 0.600586H5.72218C4.32524 0.602213 2.98598 1.15787 1.99819 2.14565C1.01041 3.13344 0.454752 4.4727 0.453125 5.86964V14.3001C0.454752 15.6971 1.01041 17.0363 1.99819 18.0241C2.98598 19.0119 4.32524 19.5676 5.72218 19.5692H14.1527C15.5496 19.5676 16.8889 19.0119 17.8767 18.0241C18.8645 17.0363 19.4201 15.6971 19.4217 14.3001V5.86964C19.4201 4.4727 18.8645 3.13344 17.8767 2.14565C16.8889 1.15787 15.5496 0.602213 14.1527 0.600586ZM17.3141 14.3001C17.3141 15.1386 16.981 15.9427 16.3881 16.5356C15.7953 17.1285 14.9911 17.4616 14.1527 17.4616H5.72218C4.88372 17.4616 4.0796 17.1285 3.48671 16.5356C2.89383 15.9427 2.56075 15.1386 2.56075 14.3001V5.86964C2.56075 5.03118 2.89383 4.22706 3.48671 3.63417C4.0796 3.04129 4.88372 2.70821 5.72218 2.70821H14.1527C14.9911 2.70821 15.7953 3.04129 16.3881 3.63417C16.981 4.22706 17.3141 5.03118 17.3141 5.86964V14.3001ZM15.909 5.51837C15.909 5.79627 15.8266 6.06793 15.6722 6.299C15.5178 6.53006 15.2984 6.71015 15.0416 6.8165C14.7849 6.92285 14.5024 6.95067 14.2298 6.89646C13.9573 6.84224 13.7069 6.70842 13.5104 6.51192C13.3139 6.31541 13.1801 6.06505 13.1259 5.79249C13.0716 5.51993 13.0995 5.23742 13.2058 4.98067C13.3122 4.72393 13.4923 4.50448 13.7233 4.35009C13.9544 4.1957 14.226 4.11329 14.5039 4.11329C14.8766 4.11329 15.234 4.26133 15.4975 4.52483C15.761 4.78833 15.909 5.14572 15.909 5.51837Z" fill="white"/>
</svg>
