<svg width="20" height="20" viewBox="0 0 20 20" fill="none" xmlns="http://www.w3.org/2000/svg">
<path d="M17.6457 0.621094H1.48861C0.696598 0.621094 0.0629883 1.2547 0.0629883 1.96751V18.2038C0.0629883 18.9166 0.696598 19.5502 1.48861 19.5502H17.6457C18.4377 19.5502 19.0713 18.9166 19.0713 18.2038V1.96751C19.0713 1.2547 18.4377 0.621094 17.6457 0.621094ZM5.68628 16.7781H2.91423V7.7492H5.68628V16.7781ZM4.33985 6.48198C3.46864 6.48198 2.67663 5.76917 2.67663 4.81876C2.67663 3.86834 3.38944 3.15553 4.33985 3.15553C5.21107 3.15553 6.00308 3.86834 6.00308 4.81876C6.00308 5.76917 5.21107 6.48198 4.33985 6.48198ZM16.2992 16.6989H13.5272V12.2637C13.5272 11.2341 13.5272 9.80844 12.0224 9.80844C10.5175 9.80844 10.3591 10.9965 10.3591 12.1053V16.6197H7.5871V7.7492H10.2007V8.93722H10.2799C10.676 8.22441 11.6264 7.4324 12.9728 7.4324C15.824 7.4324 16.3784 9.33323 16.3784 11.7885V16.6989H16.2992Z" fill="white"/>
</svg>
