<svg width="28" height="28" viewBox="0 0 28 28" fill="none" xmlns="http://www.w3.org/2000/svg">
<path d="M13.947 26.894C21.0974 26.894 26.894 21.0974 26.894 13.947C26.894 6.79656 21.0974 1 13.947 1C6.79656 1 1 6.79656 1 13.947C1 21.0974 6.79656 26.894 13.947 26.894Z" fill="#090C1B" stroke="white" stroke-width="0.924785" stroke-miterlimit="10" stroke-linecap="round" stroke-linejoin="round"/>
<path d="M13.9474 1V26.894C9.98909 26.894 6.78027 21.0974 6.78027 13.947C6.78027 6.79655 9.98909 1 13.9474 1C17.9056 1 21.1144 6.79655 21.1144 13.947C21.1144 21.0974 17.9056 26.894 13.9474 26.894" fill="#090C1B"/>
<path d="M13.9474 1V26.894M13.9474 1C9.98909 1 6.78027 6.79655 6.78027 13.947C6.78027 21.0974 9.98909 26.894 13.9474 26.894M13.9474 1C17.9056 1 21.1144 6.79655 21.1144 13.947C21.1144 21.0974 17.9056 26.894 13.9474 26.894" stroke="white" stroke-width="0.924785" stroke-miterlimit="10" stroke-linecap="round" stroke-linejoin="round"/>
<path d="M26.894 13.9473H1H26.894Z" fill="#090C1B"/>
<path d="M26.894 13.9473H1" stroke="white" stroke-width="0.924785" stroke-miterlimit="10" stroke-linecap="round" stroke-linejoin="round"/>
<path d="M25.0444 7.47363H2.84961H25.0444Z" fill="#090C1B"/>
<path d="M25.0444 7.47363H2.84961" stroke="white" stroke-width="0.924785" stroke-miterlimit="10" stroke-linecap="round" stroke-linejoin="round"/>
<path d="M25.0444 20.4209H2.84961H25.0444Z" fill="#090C1B"/>
<path d="M25.0444 20.4209H2.84961" stroke="white" stroke-width="0.924785" stroke-miterlimit="10" stroke-linecap="round" stroke-linejoin="round"/>
</svg>
