<svg width="24" height="18" viewBox="0 0 24 18" fill="none" xmlns="http://www.w3.org/2000/svg">
<path d="M15.0362 12.8147C15.7282 12.1371 16.2028 11.2687 16.3992 10.3202C16.5957 9.37182 16.5052 8.38637 16.1393 7.48959C15.7733 6.59282 15.1486 5.82538 14.3446 5.28515C13.5407 4.74493 12.5941 4.45642 11.6256 4.45642C10.657 4.45642 9.7104 4.74493 8.90649 5.28515C8.10259 5.82538 7.47782 6.59282 7.11189 7.48959C6.74596 8.38637 6.65545 9.37182 6.85191 10.3202C7.04837 11.2687 7.52289 12.1371 8.21494 12.8147C7.04321 13.4376 6.06902 14.3757 5.40244 15.5231C5.25969 15.7811 5.2239 16.0848 5.30277 16.3688C5.38164 16.6529 5.56887 16.8947 5.82417 17.0421C6.07948 17.1895 6.38245 17.2308 6.66791 17.1572C6.95337 17.0835 7.19851 16.9007 7.35057 16.6481C7.79017 15.9054 8.41566 15.29 9.16544 14.8625C9.91522 14.435 10.7634 14.2102 11.6265 14.2102C12.4896 14.2102 13.3378 14.435 14.0876 14.8625C14.8373 15.29 15.4628 15.9054 15.9024 16.6481C15.9748 16.7789 16.0725 16.894 16.1898 16.9865C16.3072 17.0791 16.4418 17.1474 16.5858 17.1874C16.7298 17.2274 16.8804 17.2383 17.0286 17.2194C17.1769 17.2006 17.3199 17.1524 17.4494 17.0776C17.5788 17.0029 17.692 16.9031 17.7825 16.7841C17.8729 16.6651 17.9387 16.5293 17.9761 16.3846C18.0134 16.2398 18.0216 16.0891 18 15.9412C17.9785 15.7933 17.9277 15.6512 17.8506 15.5231C17.1835 14.3754 16.2086 13.4373 15.0362 12.8147ZM9.00057 9.33657C9.00057 8.8174 9.15452 8.30988 9.44296 7.8782C9.7314 7.44652 10.1414 7.11007 10.621 6.91139C11.1007 6.71271 11.6285 6.66073 12.1377 6.76201C12.6469 6.8633 13.1146 7.11331 13.4817 7.48042C13.8488 7.84753 14.0988 8.31526 14.2001 8.82446C14.3014 9.33366 14.2494 9.86146 14.0508 10.3411C13.8521 10.8208 13.5156 11.2307 13.0839 11.5192C12.6523 11.8076 12.1447 11.9616 11.6256 11.9616C10.9294 11.9616 10.2617 11.685 9.76941 11.1927C9.27713 10.7004 9.00057 10.0328 9.00057 9.33657ZM22.8015 10.2356C22.6833 10.3245 22.5488 10.3892 22.4057 10.426C22.2625 10.4628 22.1135 10.471 21.9671 10.4502C21.8207 10.4294 21.6799 10.38 21.5527 10.3047C21.4254 10.2294 21.3143 10.1298 21.2256 10.0116C20.4446 8.97189 19.3646 8.17501 18.4759 7.98282C18.2396 7.93171 18.026 7.80583 17.8668 7.62382C17.7077 7.44181 17.6114 7.21336 17.5922 6.97234C17.5731 6.73131 17.6321 6.49053 17.7605 6.28568C17.889 6.08082 18.08 5.9228 18.3053 5.83501C18.5857 5.72552 18.8357 5.55009 19.0341 5.32356C19.2325 5.09703 19.3733 4.82605 19.4448 4.53356C19.5163 4.24107 19.5163 3.93567 19.4448 3.64318C19.3733 3.35068 19.2325 3.07971 19.0341 2.85318C18.8357 2.62665 18.5857 2.45122 18.3053 2.34173C18.0248 2.23224 17.722 2.19191 17.4227 2.22415C17.1233 2.25639 16.8361 2.36026 16.5854 2.52697C16.3346 2.69367 16.1277 2.91831 15.9821 3.18189C15.9131 3.31546 15.818 3.43383 15.7024 3.53002C15.5869 3.62621 15.4532 3.69826 15.3093 3.7419C15.1654 3.78555 15.0143 3.79992 14.8647 3.78415C14.7152 3.76839 14.5704 3.72281 14.4388 3.65011C14.3072 3.57741 14.1915 3.47906 14.0985 3.36089C14.0055 3.24271 13.9372 3.1071 13.8976 2.96207C13.8579 2.81704 13.8477 2.66554 13.8676 2.5165C13.8875 2.36747 13.9371 2.22394 14.0134 2.09439C14.2918 1.60215 14.6684 1.17241 15.1198 0.83186C15.5713 0.491309 16.088 0.247222 16.6377 0.11476C17.1875 -0.0177015 17.7586 -0.0357082 18.3156 0.0618584C18.8727 0.159425 19.4037 0.370481 19.8757 0.681917C20.3477 0.993352 20.7507 1.39851 21.0595 1.87224C21.3683 2.34596 21.5765 2.87812 21.671 3.43567C21.7655 3.99322 21.7443 4.56425 21.6088 5.11328C21.4733 5.66231 21.2264 6.17762 20.8834 6.6272C21.7088 7.17706 22.4335 7.86492 23.0256 8.66064C23.2047 8.89922 23.2817 9.19917 23.2397 9.49454C23.1977 9.7899 23.0401 10.0565 22.8015 10.2356ZM4.77526 7.98564C3.88651 8.17782 2.80651 8.9747 2.02557 10.0153C1.84593 10.2539 1.57887 10.4113 1.28315 10.453C0.987427 10.4947 0.687265 10.4172 0.448694 10.2375C0.210124 10.0579 0.0526871 9.79081 0.0110189 9.49509C-0.0306494 9.19937 0.0468639 8.89921 0.226507 8.66064C0.818855 7.86515 1.54345 7.17734 2.36869 6.6272C2.02566 6.17762 1.77874 5.66231 1.64325 5.11328C1.50777 4.56425 1.48662 3.99322 1.58112 3.43567C1.67562 2.87812 1.88375 2.34596 2.19259 1.87224C2.50142 1.39851 2.90436 0.993352 3.37638 0.681917C3.84839 0.370481 4.37941 0.159425 4.93643 0.0618584C5.49345 -0.0357082 6.06458 -0.0177015 6.61435 0.11476C7.16412 0.247222 7.68078 0.491309 8.13224 0.83186C8.5837 1.17241 8.96032 1.60215 9.23869 2.09439C9.315 2.22394 9.36457 2.36747 9.38446 2.5165C9.40436 2.66554 9.39417 2.81704 9.35452 2.96207C9.31486 3.1071 9.24654 3.24271 9.15358 3.36089C9.06062 3.47906 8.94492 3.57741 8.81331 3.65011C8.6817 3.72281 8.53685 3.76839 8.38733 3.78415C8.2378 3.79992 8.08663 3.78555 7.94276 3.7419C7.79888 3.69826 7.66521 3.62621 7.54965 3.53002C7.43409 3.43383 7.33898 3.31546 7.26994 3.18189C7.12437 2.91831 6.91747 2.69367 6.66673 2.52697C6.41599 2.36026 6.12878 2.25639 5.82941 2.22415C5.53004 2.19191 5.22731 2.23224 4.94682 2.34173C4.66633 2.45122 4.41634 2.62665 4.21798 2.85318C4.01962 3.07971 3.87874 3.35068 3.80725 3.64318C3.73576 3.93567 3.73576 4.24107 3.80725 4.53356C3.87874 4.82605 4.01962 5.09703 4.21798 5.32356C4.41634 5.55009 4.66633 5.72552 4.94682 5.83501C5.17211 5.9228 5.36312 6.08082 5.49155 6.28568C5.61998 6.49053 5.67899 6.73131 5.65984 6.97234C5.6407 7.21336 5.54441 7.44181 5.38524 7.62382C5.22608 7.80583 5.01251 7.93171 4.77619 7.98282L4.77526 7.98564Z" fill="white"/>
</svg>
