<svg width="32" height="32" viewBox="0 0 32 32" fill="none" xmlns="http://www.w3.org/2000/svg">
<g clip-path="url(#clip0_1537_5606)">
<path opacity="0.992" fill-rule="evenodd" clip-rule="evenodd" d="M15.5939 -0.03125C15.8439 -0.03125 16.0939 -0.03125 16.3439 -0.03125C16.927 0.352684 17.4686 0.8006 17.9689 1.3125C20.2493 3.07681 22.8327 4.11847 25.7189 4.4375C26.655 4.51953 27.5925 4.58203 28.5314 4.625C29.0073 4.74669 29.2885 5.04878 29.3752 5.53125C29.5105 8.67863 29.4896 11.8244 29.3127 14.9688C28.7419 23.5553 24.3982 29.222 16.2814 31.9688C16.0731 31.9688 15.8647 31.9688 15.6564 31.9688C7.54041 29.2244 3.19668 23.5578 2.62516 14.9688C2.44804 11.8454 2.4272 8.72038 2.56266 5.59375C2.6206 5.07741 2.90185 4.75449 3.40641 4.625C6.40591 4.68753 9.23922 4.0417 11.9064 2.6875C13.1437 1.98506 14.2687 1.13089 15.2814 0.125C15.3948 0.0776975 15.499 0.025614 15.5939 -0.03125ZM20.5314 11.0312C21.0606 11.571 21.5814 12.1231 22.0939 12.6875C19.7209 14.8729 17.3667 17.0812 15.0314 19.3125C14.599 19.6321 14.1407 19.6737 13.6564 19.4375C12.3918 18.0743 11.1418 16.6993 9.90641 15.3125C10.4771 14.8461 11.0292 14.3566 11.5627 13.8438C12.4908 14.8365 13.3971 15.8469 14.2814 16.875C14.3439 16.9167 14.4064 16.9167 14.4689 16.875C16.5022 14.9354 18.523 12.9875 20.5314 11.0312Z" fill="white"/>
</g>
<defs>
<clipPath id="clip0_1537_5606">
<rect width="32" height="32" fill="white"/>
</clipPath>
</defs>
</svg>
