<svg width="34" height="30" viewBox="0 0 34 30" fill="none" xmlns="http://www.w3.org/2000/svg">
<path d="M30.1669 6.63347C29.9577 6.33502 29.6798 6.09134 29.3566 5.92306C29.0333 5.75477 28.6743 5.66682 28.3099 5.66667H22.6667V2.26667C22.666 1.66572 22.427 1.08957 22.002 0.664637C21.5771 0.2397 21.0009 0.000674931 20.4 0H2.26667C1.66572 0.000674931 1.08957 0.2397 0.664637 0.664637C0.2397 1.08957 0.000674931 1.66572 0 2.26667V25.5H3.75997C3.95911 26.6123 4.54303 27.6191 5.40957 28.3442C6.2761 29.0694 7.37006 29.4668 8.5 29.4668C9.62994 29.4668 10.7239 29.0694 11.5904 28.3442C12.457 27.6191 13.0409 26.6123 13.24 25.5H20.76C20.9591 26.6123 21.543 27.6191 22.4096 28.3442C23.2761 29.0694 24.3701 29.4668 25.5 29.4668C26.6299 29.4668 27.7239 29.0694 28.5904 28.3442C29.457 27.6191 30.0409 26.6123 30.24 25.5H34V12.6453C34.0005 12.2964 33.8932 11.9559 33.6927 11.6704L30.1669 6.63347ZM2.26525 2.26667H20.4V14.7333H2.26667L2.26525 2.26667ZM8.5 27.2C7.99566 27.2 7.50264 27.0504 7.0833 26.7702C6.66395 26.49 6.33711 26.0918 6.14411 25.6258C5.9511 25.1599 5.9006 24.6472 5.999 24.1525C6.09739 23.6579 6.34025 23.2035 6.69688 22.8469C7.0535 22.4903 7.50787 22.2474 8.00252 22.149C8.49717 22.0506 9.00989 22.1011 9.47584 22.2941C9.94179 22.4871 10.34 22.814 10.6202 23.2333C10.9004 23.6526 11.05 24.1457 11.05 24.65C11.0492 25.3261 10.7803 25.9742 10.3023 26.4523C9.82424 26.9303 9.17607 27.1992 8.5 27.2ZM25.5 27.2C24.9957 27.2 24.5026 27.0504 24.0833 26.7702C23.6639 26.49 23.3371 26.0918 23.1441 25.6258C22.9511 25.1599 22.9006 24.6472 22.999 24.1525C23.0974 23.6579 23.3403 23.2035 23.6969 22.8469C24.0535 22.4903 24.5079 22.2474 25.0025 22.149C25.4972 22.0506 26.0099 22.1011 26.4758 22.2941C26.9418 22.4871 27.34 22.814 27.6202 23.2333C27.9004 23.6526 28.05 24.1457 28.05 24.65C28.0492 25.3261 27.7803 25.9742 27.3023 26.4523C26.8242 26.9303 26.1761 27.1992 25.5 27.2ZM31.7333 23.2333H30.1037C29.8008 22.2488 29.1903 21.3872 28.3617 20.7752C27.5331 20.1632 26.5301 19.8329 25.5 19.8329C24.4699 19.8329 23.4669 20.1632 22.6383 20.7752C21.8097 21.3872 21.1991 22.2488 20.8963 23.2333H13.1037C12.8008 22.2488 12.1903 21.3872 11.3617 20.7752C10.5331 20.1632 9.53011 19.8329 8.5 19.8329C7.46989 19.8329 6.46691 20.1632 5.63831 20.7752C4.80971 21.3872 4.19915 22.2488 3.89626 23.2333H2.26667V17H31.7333V23.2333ZM31.7333 14.7333H22.6667V7.93333H28.3099L31.7333 12.824V14.7333Z" fill="white"/>
</svg>
