<svg width="21" height="22" viewBox="0 0 21 22" fill="none" xmlns="http://www.w3.org/2000/svg">
<path d="M17.3184 2.99032C15.9042 1.56707 14.0993 0.59577 12.1324 0.199537C10.1655 -0.196697 8.12527 -1.60933e-05 6.2703 0.764646C4.41533 1.52931 2.82916 2.82752 1.71287 4.49471C0.59658 6.1619 0.00043225 8.12299 0 10.1294V15.3794C0 16.0756 0.276562 16.7433 0.768845 17.2355C1.26113 17.7278 1.92881 18.0044 2.625 18.0044H4.125C4.82119 18.0044 5.48887 17.7278 5.98116 17.2355C6.47344 16.7433 6.75 16.0756 6.75 15.3794V11.6294C6.75 10.9332 6.47344 10.2655 5.98116 9.77323C5.48887 9.28095 4.82119 9.00438 4.125 9.00438H2.32875C2.60025 7.1302 3.53764 5.41649 4.96934 4.17693C6.40103 2.93736 8.23126 2.25487 10.125 2.25438H10.185C12.0703 2.26246 13.8897 2.94904 15.3103 4.18854C16.7309 5.42803 17.6577 7.13757 17.9212 9.00438H16.125C15.4288 9.00438 14.7611 9.28095 14.2688 9.77323C13.7766 10.2655 13.5 10.9332 13.5 11.6294V15.3794C13.5 16.0756 13.7766 16.7433 14.2688 17.2355C14.7611 17.7278 15.4288 18.0044 16.125 18.0044H17.9625C17.8761 18.4279 17.6459 18.8085 17.3111 19.0819C16.9762 19.3552 16.5572 19.5045 16.125 19.5044H10.875C10.5766 19.5044 10.2905 19.6229 10.0795 19.8339C9.86853 20.0449 9.75 20.331 9.75 20.6294C9.75 20.9278 9.86853 21.2139 10.0795 21.4249C10.2905 21.6359 10.5766 21.7544 10.875 21.7544H16.125C17.2186 21.7531 18.2671 21.3181 19.0404 20.5448C19.8138 19.7715 20.2488 18.723 20.25 17.6294V10.1294C20.2552 8.80505 19.9989 7.49273 19.4958 6.26765C18.9927 5.04258 18.2528 3.92885 17.3184 2.99032ZM4.125 11.2544C4.22446 11.2544 4.31984 11.2939 4.39017 11.3642C4.46049 11.4345 4.5 11.5299 4.5 11.6294V15.3794C4.5 15.4788 4.46049 15.5742 4.39017 15.6446C4.31984 15.7149 4.22446 15.7544 4.125 15.7544H2.625C2.52554 15.7544 2.43016 15.7149 2.35984 15.6446C2.28951 15.5742 2.25 15.4788 2.25 15.3794V11.2544H4.125ZM15.75 15.3794V11.6294C15.75 11.5299 15.7895 11.4345 15.8598 11.3642C15.9302 11.2939 16.0255 11.2544 16.125 11.2544H18V15.7544H16.125C16.0255 15.7544 15.9302 15.7149 15.8598 15.6446C15.7895 15.5742 15.75 15.4788 15.75 15.3794Z" fill="white"/>
</svg>
