<svg width="21" height="21" viewBox="0 0 21 21" fill="none" xmlns="http://www.w3.org/2000/svg">
<path d="M0 15.9629V17.6446C0 19.0349 3.38714 20.1653 7.56198 20.1653C11.7368 20.1653 15.124 19.0349 15.124 17.6446V15.9629C13.4973 17.109 10.5238 17.6446 7.56198 17.6446C4.60021 17.6446 1.62661 17.109 0 15.9629ZM12.6033 5.04132C16.7781 5.04132 20.1653 3.91096 20.1653 2.52066C20.1653 1.13036 16.7781 0 12.6033 0C8.42846 0 5.04132 1.13036 5.04132 2.52066C5.04132 3.91096 8.42846 5.04132 12.6033 5.04132ZM0 11.8313V13.8636C0 15.2539 3.38714 16.3843 7.56198 16.3843C11.7368 16.3843 15.124 15.2539 15.124 13.8636V11.8313C13.4973 13.1705 10.5198 13.8636 7.56198 13.8636C4.60414 13.8636 1.62661 13.1705 0 11.8313ZM16.3843 12.2646C18.6411 11.8274 20.1653 11.0161 20.1653 10.0826V8.40089C19.2515 9.04681 17.9085 9.48792 16.3843 9.75968V12.2646ZM7.56198 6.30165C3.38714 6.30165 0 7.71165 0 9.45248C0 11.1933 3.38714 12.6033 7.56198 12.6033C11.7368 12.6033 15.124 11.1933 15.124 9.45248C15.124 7.71165 11.7368 6.30165 7.56198 6.30165ZM16.1992 8.51904C18.5623 8.09368 20.1653 7.25871 20.1653 6.30165V4.6199C18.7671 5.60847 16.3646 6.14017 13.8361 6.2662C14.9979 6.82941 15.8526 7.58561 16.1992 8.51904Z" fill="white"/>
</svg>
