<svg width="335" height="369" viewBox="0 0 335 369" fill="none" xmlns="http://www.w3.org/2000/svg">
<path fill-rule="evenodd" clip-rule="evenodd" d="M171.059 11.8577L171.06 -34.4247L246.824 -34.4191L246.826 11.8513C246.822 19.9709 256.363 24.3327 262.496 19.0182L296.615 -10.5608L346.239 46.6932L312.116 76.2646C256.921 124.102 171.063 84.9002 171.059 11.8577Z" fill="#F0F0F0"/>
<path fill-rule="evenodd" clip-rule="evenodd" d="M271.782 266.49L271.78 312.773L196.013 312.779L196.015 266.497C196.019 258.377 186.478 254.015 180.337 259.334L146.221 288.901L96.6014 231.655L130.725 202.083C185.919 154.246 271.77 193.452 271.782 266.49Z" fill="#F0F0F0"/>
<path fill-rule="evenodd" clip-rule="evenodd" d="M138.074 30.9023L97.9994 7.75834L60.1147 73.379L100.193 96.511C107.219 100.572 106.234 111.011 98.557 113.67L55.8814 128.428L80.6678 200.022L123.331 185.261C192.365 161.375 201.344 67.4184 138.082 30.8979L138.074 30.9023Z" fill="#F0F0F0"/>
<path fill-rule="evenodd" clip-rule="evenodd" d="M304.831 247.415L344.899 270.564L382.788 204.951L342.705 181.811C335.679 177.75 336.665 167.311 344.341 164.652L387.005 149.891L362.238 78.2955L319.567 93.0613C250.541 116.943 241.569 210.895 304.816 247.424L304.831 247.415Z" fill="#F0F0F0"/>
</svg>
