<svg width="253" height="328" viewBox="0 0 253 328" fill="none" xmlns="http://www.w3.org/2000/svg">
<path fill-rule="evenodd" clip-rule="evenodd" d="M110.305 86.2281L143.609 52.9266L198.122 107.447L164.829 140.742C158.983 146.582 162.71 156.586 170.947 157.175L216.781 160.442L211.291 237.347L165.46 234.072C91.3218 228.778 57.7498 138.789 110.305 86.2281Z" fill="#F0F0F0"/>
<path fill-rule="evenodd" clip-rule="evenodd" d="M-0.44271 341.927L-33.7469 375.228L-88.2703 320.714L-54.9661 287.413C-49.1207 281.573 -52.8474 271.569 -61.0933 270.978L-106.917 267.705L-101.429 190.808L-55.5971 194.084C18.5406 199.377 52.1039 289.363 -0.44271 341.927Z" fill="#F0F0F0"/>
<path fill-rule="evenodd" clip-rule="evenodd" d="M72.869 76.1934L60.6861 30.7037L-13.7919 50.6612L-1.59814 96.1446C0.535799 104.122 -7.68501 110.925 -15.1219 107.314L-56.4488 87.226L-90.1298 156.577L-48.8092 176.655C18.0516 209.141 92.1199 147.995 72.8776 76.1957L72.869 76.1934Z" fill="#F0F0F0"/>
<path fill-rule="evenodd" clip-rule="evenodd" d="M37.0681 351.978L49.2423 397.466L123.718 377.517L111.527 332.025C109.393 324.047 117.613 317.245 125.05 320.855L166.371 340.932L200.067 271.594L158.738 251.515C91.8855 219.031 17.8258 280.179 37.0508 351.974L37.0681 351.978Z" fill="#F0F0F0"/>
</svg>
