<svg width="61" height="61" viewBox="0 0 61 61" fill="none" xmlns="http://www.w3.org/2000/svg">
<path d="M13.2979 38.7774C13.1673 39.0085 13.0542 39.2473 12.958 39.4932H9.33691L9.53125 38.7774H13.2979ZM16.5225 15.1446H41.375L39.9814 21.2462L39.792 22.0762H39.7725L39.3887 23.7247L37.2168 33.0557L36.6074 35.6719H50.835L50.083 39.4932H48.2061C47.9514 38.8419 47.5766 38.2397 47.085 37.6993L46.8799 37.4844C45.7521 36.3541 44.3308 35.7582 42.7314 35.7608C41.2372 35.7633 39.8978 36.2845 38.8086 37.2774L38.5947 37.4825C38.0002 38.077 37.5544 38.7532 37.2646 39.4932H23.8994C23.6447 38.8417 23.2692 38.2398 22.7773 37.6993L22.5732 37.4844C21.7869 36.6963 20.8576 36.1687 19.8252 35.9219C20.7435 34.6982 21.208 33.2563 21.208 31.668C21.208 31.1258 21.1479 30.5944 21.0264 30.0782H21.71C23.6536 30.0782 25.3783 29.3833 26.751 28.0108C28.1232 26.6386 28.8193 24.9146 28.8193 22.9717C28.8193 21.1504 28.208 19.5215 27.002 18.1934L26.7529 17.9317C25.3805 16.5569 23.6549 15.8604 21.71 15.8604H15.8242L15.834 15.8243L15.8447 15.7833L15.8545 15.7422C15.8937 15.5749 15.9533 15.4584 16.0381 15.3614L16.1318 15.2696L16.1377 15.2647L16.1426 15.2598C16.2153 15.197 16.3013 15.1446 16.5225 15.1446Z" fill="white" stroke="white" stroke-width="4.26542"/>
</svg>
