<svg width="17" height="18" viewBox="0 0 17 18" fill="none" xmlns="http://www.w3.org/2000/svg">
<path d="M16.2354 16.2431L10.8785 7.83014L16.123 2.06134C16.307 1.85391 16.4019 1.58229 16.387 1.30539C16.3721 1.02849 16.2486 0.768616 16.0434 0.582116C15.8382 0.395617 15.5677 0.297521 15.2907 0.309097C15.0136 0.320673 14.7523 0.440987 14.5633 0.643955L9.70961 5.98683L6.39973 0.787099C6.30461 0.637541 6.1733 0.51439 6.01796 0.429043C5.86261 0.343696 5.68825 0.29891 5.511 0.298828H1.29572C1.10694 0.298915 0.921656 0.349709 0.759226 0.4459C0.596796 0.542091 0.463186 0.680148 0.372363 0.84564C0.28154 1.01113 0.236839 1.19798 0.242931 1.38666C0.249023 1.57534 0.305685 1.75891 0.406995 1.9182L5.76392 10.3312L0.51589 16.1C0.42087 16.2021 0.347054 16.322 0.29872 16.4528C0.250386 16.5836 0.228496 16.7227 0.234317 16.862C0.240138 17.0014 0.273556 17.1382 0.332633 17.2645C0.39171 17.3908 0.475272 17.5041 0.578474 17.5979C0.681677 17.6917 0.802468 17.7641 0.933848 17.8109C1.06523 17.8576 1.20458 17.8778 1.34383 17.8704C1.48308 17.8629 1.61946 17.8278 1.74507 17.7672C1.87067 17.7066 1.983 17.6217 2.07555 17.5174L6.93279 12.1745L10.2427 17.3743C10.3378 17.5238 10.4691 17.647 10.6244 17.7323C10.7798 17.8177 10.9541 17.8624 11.1314 17.8625H15.3467C15.5355 17.8624 15.7207 17.8116 15.8832 17.7155C16.0456 17.6193 16.1792 17.4812 16.27 17.3157C16.3609 17.1502 16.4056 16.9634 16.3995 16.7747C16.3934 16.586 16.3367 16.4024 16.2354 16.2431ZM11.7101 15.7549L3.21543 2.40647H4.93228L13.427 15.7549H11.7101Z" fill="white"/>
</svg>
