<svg width="32" height="32" viewBox="0 0 32 32" fill="none" xmlns="http://www.w3.org/2000/svg">
<path opacity="0.992" fill-rule="evenodd" clip-rule="evenodd" d="M15.8438 6.40627C16.2 6.40433 16.5021 6.52933 16.75 6.78127C18.3775 9.67177 20.0129 12.5571 21.6562 15.4375C23.6359 14.5208 25.6151 13.5833 27.5938 12.625C28.583 12.4266 29.0518 12.8328 29 13.8438C28.1667 17.5105 27.3333 21.1771 26.5 24.8438C26.3854 25.125 26.1875 25.323 25.9062 25.4375C19.2604 25.4792 12.6146 25.4792 5.96875 25.4375C5.7561 25.35 5.57902 25.2146 5.4375 25.0313C4.57494 21.31 3.7416 17.5809 2.9375 13.8438C2.93932 12.8013 3.44974 12.4159 4.46875 12.6875C6.37213 13.6236 8.27838 14.5507 10.1875 15.4688C11.8567 12.5366 13.5338 9.60952 15.2188 6.68752C15.4102 6.5394 15.6186 6.44565 15.8438 6.40627Z" fill="white"/>
</svg>
