<svg width="32" height="32" viewBox="0 0 32 32" fill="none" xmlns="http://www.w3.org/2000/svg">
<path opacity="0.932" fill-rule="evenodd" clip-rule="evenodd" d="M15.7188 1.03124C16.2868 0.965556 16.6723 1.19472 16.875 1.71874C16.933 2.38999 16.9122 3.05665 16.8125 3.71874C16.4487 4.23484 15.98 4.34942 15.4063 4.06249C15.252 3.90992 15.1374 3.73284 15.0625 3.53124C15.0208 2.92707 15.0208 2.32291 15.0625 1.71874C15.1678 1.37402 15.3865 1.14485 15.7188 1.03124Z" fill="white"/>
<path opacity="0.936" fill-rule="evenodd" clip-rule="evenodd" d="M5.90639 5.09372C6.18559 5.07076 6.45639 5.10201 6.71889 5.18747C7.18764 5.57289 7.6147 5.99997 8.00014 6.46872C8.24102 7.25897 7.95977 7.71735 7.15639 7.84372C6.95045 7.85653 6.76295 7.80447 6.59389 7.68747C6.22931 7.32291 5.86472 6.95828 5.50014 6.59372C5.16809 5.96339 5.3035 5.46339 5.90639 5.09372Z" fill="white"/>
<path opacity="0.936" fill-rule="evenodd" clip-rule="evenodd" d="M25.3434 5.09364C26.2975 4.99544 26.7037 5.41211 26.5622 6.34364C26.2021 6.82895 25.7959 7.27682 25.3434 7.68739C24.6925 8.01389 24.2029 7.85764 23.8747 7.21864C23.8267 6.96276 23.8476 6.71276 23.9372 6.46864C24.3579 5.95403 24.8267 5.49569 25.3434 5.09364Z" fill="white"/>
<path opacity="0.992" fill-rule="evenodd" clip-rule="evenodd" d="M15.5311 7.53125C19.7366 7.58238 22.5386 9.58238 23.9373 13.5312C24.7352 16.8084 23.9331 19.6314 21.5311 22C20.821 22.3974 20.3106 22.9703 19.9998 23.7188C19.9276 23.965 19.8755 24.215 19.8436 24.4688C17.2603 24.4688 14.6769 24.4688 12.0936 24.4688C12.0118 23.7531 11.7201 23.1385 11.2186 22.625C8.37471 20.4495 7.26008 17.5849 7.87483 14.0312C8.61683 11.1016 10.3981 9.09125 13.2186 8C13.9799 7.752 14.7507 7.59575 15.5311 7.53125Z" fill="white"/>
<path opacity="0.938" fill-rule="evenodd" clip-rule="evenodd" d="M2.09382 14.7812C2.61507 14.7709 3.1359 14.7812 3.65632 14.8125C4.34554 15.0136 4.58512 15.4615 4.37507 16.1562C4.25067 16.4056 4.05275 16.5619 3.78132 16.625C3.17715 16.6667 2.57299 16.6667 1.96882 16.625C1.41945 16.4329 1.2007 16.0475 1.31257 15.4687C1.43073 15.072 1.69115 14.8429 2.09382 14.7812Z" fill="white"/>
<path opacity="0.938" fill-rule="evenodd" clip-rule="evenodd" d="M28.2812 14.7812C28.8024 14.7709 29.3233 14.7812 29.8437 14.8125C30.6157 15.043 30.8344 15.5326 30.4999 16.2812C30.3687 16.4667 30.1916 16.5812 29.9687 16.625C29.3645 16.6667 28.7604 16.6667 28.1562 16.625C27.6521 16.433 27.4333 16.0685 27.4999 15.5312C27.6123 15.1175 27.8727 14.8675 28.2812 14.7812Z" fill="white"/>
<path opacity="0.981" fill-rule="evenodd" clip-rule="evenodd" d="M12.0934 25.9688C14.6767 25.9688 17.26 25.9688 19.8434 25.9688C19.8408 27.6938 19.07 28.9333 17.5309 29.6875C15.792 30.3149 14.2816 29.9711 12.9996 28.6562C12.3554 27.88 12.0534 26.9842 12.0934 25.9688Z" fill="white"/>
</svg>
