<svg width="32" height="32" viewBox="0 0 32 32" fill="none" xmlns="http://www.w3.org/2000/svg">
<path opacity="0.983" fill-rule="evenodd" clip-rule="evenodd" d="M18.7188 7.40632C19.671 7.3072 20.5668 7.48426 21.4063 7.93757C22.9308 9.02445 24.4724 10.0869 26.0313 11.1251C27.5468 10.9137 29.0573 10.6533 30.5625 10.3438C30.8827 10.3725 31.0911 10.5392 31.1875 10.8438C31.249 13.3892 31.2281 15.9309 31.125 18.4688C30.9466 18.7091 30.707 18.8236 30.4063 18.8126C28.0955 19.1196 25.783 19.3905 23.4688 19.6251C21.8684 18.2916 20.7746 16.6146 20.1875 14.5938C19.9279 13.6916 19.7404 12.775 19.625 11.8438C19.4111 11.4191 19.0882 11.3045 18.6563 11.5001C17.4915 12.5606 16.3457 13.6439 15.2188 14.7501C13.6065 16.0989 12.0545 16.026 10.5625 14.5313C10.5208 14.4271 10.5208 14.323 10.5625 14.2188C12.679 12.1648 14.8145 10.1335 16.9688 8.12507C17.5109 7.76776 18.0942 7.5282 18.7188 7.40632Z" fill="white"/>
<path opacity="0.984" fill-rule="evenodd" clip-rule="evenodd" d="M13.9063 7.84375C14.3244 7.86769 14.7411 7.90931 15.1563 7.96875C13.3028 9.77006 11.4383 11.5617 9.5625 13.3438C9.12944 13.9952 9.10863 14.6619 9.5 15.3438C11.3088 17.2897 13.34 17.5709 15.5938 16.1875C16.5446 15.2595 17.5134 14.3533 18.5 13.4688C18.9333 15.5636 19.7874 17.4595 21.0625 19.1562C21.5233 19.6899 22.0128 20.1899 22.5313 20.6562C22.2729 21.2791 21.8146 21.6645 21.1563 21.8125C20.8021 21.8542 20.4479 21.8542 20.0938 21.8125C19.7694 21.6903 19.436 21.6486 19.0938 21.6875C18.9821 21.7366 18.8884 21.8094 18.8125 21.9062C17.8519 23.7195 16.4248 24.2299 14.5313 23.4375C14.2843 23.3805 14.0551 23.4222 13.8438 23.5625C13.3321 24.4212 12.5821 24.7337 11.5938 24.5C10.8224 24.3953 10.1349 24.1036 9.53125 23.625C8.36456 22.4167 7.19794 21.2083 6.03125 20C5.87767 19.9024 5.711 19.8399 5.53125 19.8125C4.11609 19.5336 2.69942 19.2628 1.28125 19C1.00648 18.9544 0.829402 18.7981 0.750002 18.5312C0.708333 15.9688 0.708333 13.4062 0.750002 10.8438C0.840402 10.4957 1.06957 10.329 1.4375 10.3438C3.03279 10.594 4.62654 10.8544 6.21875 11.125C6.36456 11.1667 6.51044 11.1667 6.65625 11.125C7.78369 10.1653 9.01288 9.35275 10.3438 8.6875C11.4878 8.18606 12.6753 7.90481 13.9063 7.84375Z" fill="white"/>
</svg>
