<svg width="32" height="32" viewBox="0 0 32 32" fill="none" xmlns="http://www.w3.org/2000/svg">
<path opacity="0.991" fill-rule="evenodd" clip-rule="evenodd" d="M24.0312 2.46873C25.8174 2.44664 27.5883 2.59248 29.3438 2.90623C26.9982 7.56067 25.8836 12.4982 26 17.7187C25.8918 20.621 24.8709 23.1418 22.9375 25.2812C20.2628 28.3262 16.8982 29.6283 12.8438 29.1875C11.3392 28.9989 9.92256 28.5405 8.59375 27.8125C8.54019 27.7694 8.49856 27.7174 8.46875 27.6562C9.72988 24.6757 11.1569 21.7799 12.75 18.9687C13.9111 17.1101 15.1089 15.2767 16.3438 13.4687C16.0366 13.5584 15.7241 13.6938 15.4062 13.875C10.8162 16.6639 7.67037 20.6119 5.96875 25.7187C3.78241 23.4899 2.67824 20.8024 2.65625 17.6562C2.67986 14.6779 3.69028 12.0945 5.6875 9.90623C9.70719 5.95387 14.5301 3.58929 20.1562 2.81248C21.4528 2.64199 22.7445 2.5274 24.0312 2.46873Z" fill="white"/>
</svg>
