<svg width="32" height="32" viewBox="0 0 32 32" fill="none" xmlns="http://www.w3.org/2000/svg">
<g clip-path="url(#clip0_357_9297)">
<path opacity="0.991" fill-rule="evenodd" clip-rule="evenodd" d="M14.7808 -0.03125C15.4267 -0.03125 16.0725 -0.03125 16.7183 -0.03125C19.8619 0.518118 21.9973 2.28895 23.1246 5.28125C24.1095 9.2455 22.8908 12.3184 19.4683 14.5C17.2438 15.587 14.973 15.6912 12.6558 14.8125C9.33047 13.1494 7.79922 10.4514 8.06209 6.71875C8.46715 4.10578 9.8109 2.13703 12.0933 0.8125C12.9471 0.371534 13.8429 0.0902838 14.7808 -0.03125Z" fill="white"/>
<path opacity="0.994" fill-rule="evenodd" clip-rule="evenodd" d="M24.5941 31.9687C18.8233 31.9687 13.0524 31.9687 7.28157 31.9687C5.28488 31.7122 3.8578 30.6705 3.00032 28.8437C2.81136 28.381 2.68636 27.9019 2.62532 27.4062C2.45746 25.0002 2.72829 22.6461 3.43782 20.3437C3.90371 18.8792 4.70579 17.6397 5.84407 16.625C7.12607 15.656 8.56357 15.281 10.1566 15.5C10.8443 15.8854 11.5109 16.302 12.1566 16.75C14.5401 18.1331 16.9568 18.1956 19.4066 16.9375C20.1669 16.4427 20.9378 15.9635 21.7191 15.5C24.2818 15.2449 26.2298 16.2137 27.5628 18.4062C28.5629 20.3019 29.1254 22.3227 29.2503 24.4687C29.3403 25.4698 29.3403 26.4698 29.2503 27.4687C28.7491 30.0576 27.197 31.5576 24.5941 31.9687Z" fill="white"/>
</g>
<defs>
<clipPath id="clip0_357_9297">
<rect width="32" height="32" fill="white"/>
</clipPath>
</defs>
</svg>
